<svg width="100" height="100" xml:space="preserve" xmlns="http://www.w3.org/2000/svg"><path style="fill:#7d71dd;stroke-width:1.43585" d="M100 50a50 50 0 0 1-50 50A50 50 0 0 1 0 50 50 50 0 0 1 50 0a50 50 0 0 1 50 50Z"/><path style="fill:#aec1f0;stroke-width:1.14023" d="M89.706 50A39.706 39.706 0 0 1 50 89.706 39.706 39.706 0 0 1 10.294 50 39.706 39.706 0 0 1 50 10.294 39.706 39.706 0 0 1 89.706 50Z"/><path style="fill:#7d71dd;fill-opacity:1;stroke-width:.120678" d="M31.24 21.067a10.733 10.733 0 0 0-5.8 1.648c-3.348 2.116-5.073 5.796-4.613 9.844.361 3.181 1.488 6.084 3.505 9.005-4.668 8.003-5.052 16.6-5.052 19.175v1.274l1.15.546c3.845 1.827 14.555 7.297 17.902 10.63 1.315 1.308 2.36 2.664 3.37 3.975 2.255 2.927 4.386 5.69 8.298 5.69s6.043-2.764 8.299-5.69c1.01-1.31 2.054-2.667 3.369-3.975 3.347-3.333 14.057-8.803 17.902-10.63l1.15-.546v-1.274c0-2.574-.384-11.172-5.052-19.175 2.016-2.92 3.143-5.824 3.505-9.006.46-4.048-1.265-7.727-4.613-9.843-3.616-2.286-8.302-2.187-12.23.256-1.823 1.134-3.535 2.9-5.1 5.256-2.28-.472-4.693-.71-7.23-.71-2.537 0-4.951.238-7.23.71-1.565-2.356-3.276-4.122-5.099-5.256-2.025-1.26-4.253-1.896-6.43-1.904zm18.872 11.817 2.135 4.571 4.976.831-3.686 3.443.746 4.989-4.414-2.442-4.514 2.251.959-4.951-3.537-3.598 5.007-.619zm-17.194 4.457c3.407 8.332 6.32 20.407 7.913 32.661-4.061-3.764-14.04-8.818-17.492-10.511.15-3.428 1.008-10.812 5.372-17.334a24.189 24.189 0 0 1 4.207-4.816zm34.164 0a24.192 24.192 0 0 1 4.207 4.816c4.364 6.522 5.224 13.906 5.373 17.334-3.452 1.693-13.432 6.748-17.493 10.512 1.592-12.254 4.506-24.33 7.913-32.662zm-32.355 18.43a2.475 2.475 0 0 0-2.464 2.485 2.474 2.474 0 0 0 2.464 2.483 2.474 2.474 0 0 0 2.463-2.483c0-1.372-1.104-2.485-2.463-2.485zm30.548 0a2.475 2.475 0 0 0-2.465 2.485 2.474 2.474 0 0 0 2.465 2.483 2.474 2.474 0 0 0 2.462-2.483c0-1.372-1.104-2.485-2.462-2.485zM45.46 75.066h9.08l-.04.418c-1.725 2.198-2.842 3.34-4.5 3.34s-2.775-1.142-4.5-3.34l-.04-.418z"/></svg>